<svg xmlns="http://www.w3.org/2000/svg" xmlns:xlink="http://www.w3.org/1999/xlink" width="1920" zoomAndPan="magnify" viewBox="0 0 1440 809.999993" height="1080" preserveAspectRatio="xMidYMid meet" version="1.0"><defs><g/></defs><g fill="#03295d" fill-opacity="1"><g transform="translate(77.678883, 534.146779)"><g><path d="M 295.671875 -237.546875 C 308.085938 -225.734375 315.28125 -212.632812 317.25 -198.25 C 319.21875 -183.863281 317.851562 -169.328125 313.15625 -154.640625 C 308.46875 -139.960938 302.335938 -126.414062 294.765625 -114 C 282.347656 -93.101562 267.28125 -74.253906 249.5625 -57.453125 C 231.851562 -40.648438 213.3125 -25.285156 193.9375 -11.359375 C 173.34375 3.484375 152.070312 16.957031 130.125 29.0625 C 108.175781 41.175781 85.539062 51.925781 62.21875 61.3125 C 61.613281 64.945312 61.007812 68.128906 60.40625 70.859375 C 60.101562 74.484375 58.664062 76.367188 56.09375 76.515625 C 53.519531 76.671875 50.640625 75.765625 47.453125 73.796875 C 44.273438 71.835938 41.550781 69.414062 39.28125 66.53125 C 37.007812 63.65625 36.023438 61.007812 36.328125 58.59375 C 36.941406 55.257812 37.550781 51.625 38.15625 47.6875 C 37.25 44.351562 37.550781 41.929688 39.0625 40.421875 C 46.320312 -0.453125 59.265625 -39.4375 77.890625 -76.53125 C 96.515625 -113.625 120.359375 -147.160156 149.421875 -177.140625 C 151.242188 -179.253906 153.742188 -179.78125 156.921875 -178.71875 C 160.097656 -177.664062 163.046875 -175.695312 165.765625 -172.8125 C 168.492188 -169.9375 170.460938 -166.910156 171.671875 -163.734375 C 172.890625 -160.554688 172.4375 -158.054688 170.3125 -156.234375 C 145.789062 -130.503906 124.898438 -102.046875 107.640625 -70.859375 C 90.378906 -39.671875 77.359375 -6.96875 68.578125 27.25 C 87.660156 18.769531 106.207031 9.304688 124.21875 -1.140625 C 142.238281 -11.585938 159.722656 -22.863281 176.671875 -34.96875 C 193.328125 -47.382812 209.300781 -60.707031 224.59375 -74.9375 C 239.882812 -89.164062 253.4375 -104.757812 265.25 -121.71875 C 268.882812 -126.863281 272.742188 -133.144531 276.828125 -140.5625 C 280.910156 -147.988281 284.691406 -156.09375 288.171875 -164.875 C 291.660156 -173.65625 293.929688 -182.28125 294.984375 -190.75 C 296.046875 -199.226562 295.289062 -206.953125 292.71875 -213.921875 C 290.144531 -220.890625 284.769531 -226.335938 276.59375 -230.265625 C 268.425781 -234.203125 259.570312 -236.398438 250.03125 -236.859375 C 240.488281 -237.316406 231.328125 -237.085938 222.546875 -236.171875 C 211.347656 -235.265625 200.222656 -233.828125 189.171875 -231.859375 C 178.117188 -229.890625 167.140625 -227.394531 156.234375 -224.375 C 113.242188 -212.5625 73.273438 -193.9375 36.328125 -168.5 C 33.910156 -166.6875 31.109375 -166.457031 27.921875 -167.8125 C 24.742188 -169.175781 21.789062 -171.296875 19.0625 -174.171875 C 16.34375 -177.054688 14.53125 -179.9375 13.625 -182.8125 C 12.71875 -185.6875 13.320312 -187.878906 15.4375 -189.390625 C 39.0625 -206.046875 64.195312 -219.972656 90.84375 -231.171875 C 117.488281 -242.378906 145.039062 -250.554688 173.5 -255.703125 C 186.820312 -258.128906 200.898438 -259.867188 215.734375 -260.921875 C 230.578125 -261.984375 244.960938 -260.925781 258.890625 -257.75 C 272.816406 -254.570312 285.078125 -247.835938 295.671875 -237.546875 Z M 295.671875 -237.546875 "/></g></g></g><g fill="#03295d" fill-opacity="1"><g transform="translate(409.238154, 534.146779)"><g><path d="M 280.6875 -260.25 C 282.195312 -262.976562 284.539062 -264.113281 287.71875 -263.65625 C 290.90625 -263.195312 294.007812 -261.753906 297.03125 -259.328125 C 300.0625 -256.910156 302.332031 -254.1875 303.84375 -251.15625 C 305.363281 -248.132812 305.363281 -245.410156 303.84375 -242.984375 C 289.007812 -218.160156 273.945312 -193.257812 258.65625 -168.28125 C 243.363281 -143.300781 227.546875 -118.546875 211.203125 -94.015625 C 196.660156 -72.816406 181.742188 -51.695312 166.453125 -30.65625 C 151.160156 -9.613281 134.738281 10.441406 117.1875 29.515625 C 110.21875 37.085938 102.113281 44.8125 92.875 52.6875 C 83.644531 60.5625 73.882812 65.707031 63.59375 68.125 C 53.59375 70.25 44.734375 68.429688 37.015625 62.671875 C 29.296875 56.921875 23.617188 49.65625 19.984375 40.875 C 15.441406 30.28125 13.242188 18.847656 13.390625 6.578125 C 13.546875 -5.679688 14.378906 -17.257812 15.890625 -28.15625 C 17.410156 -40.570312 19.679688 -52.988281 22.703125 -65.40625 C 25.734375 -77.820312 29.21875 -89.929688 33.15625 -101.734375 C 40.425781 -125.359375 49.207031 -148.375 59.5 -170.78125 C 69.789062 -193.1875 81.445312 -214.984375 94.46875 -236.171875 C 95.976562 -238.296875 98.171875 -238.898438 101.046875 -237.984375 C 103.929688 -237.078125 106.734375 -235.257812 109.453125 -232.53125 C 112.179688 -229.8125 114.300781 -226.863281 115.8125 -223.6875 C 117.332031 -220.507812 117.332031 -217.554688 115.8125 -214.828125 C 90.082031 -173.347656 70.097656 -129.140625 55.859375 -82.203125 C 52.535156 -72.210938 49.582031 -62.144531 47 -52 C 44.425781 -41.863281 42.382812 -31.492188 40.875 -20.890625 C 39.664062 -14.835938 38.832031 -8.628906 38.375 -2.265625 C 37.925781 4.085938 37.703125 10.289062 37.703125 16.34375 C 37.703125 18.164062 37.703125 21.117188 37.703125 25.203125 C 37.703125 29.296875 38.003906 33.304688 38.609375 37.234375 C 39.210938 41.171875 40.421875 43.597656 42.234375 44.515625 C 44.359375 46.023438 47.613281 45.71875 52 43.59375 C 56.394531 41.476562 60.632812 38.90625 64.71875 35.875 C 68.8125 32.851562 71.765625 30.734375 73.578125 29.515625 C 77.210938 26.492188 80.769531 23.316406 84.25 19.984375 C 87.726562 16.648438 91.132812 13.316406 94.46875 9.984375 C 101.738281 2.421875 108.628906 -5.367188 115.140625 -13.390625 C 121.648438 -21.421875 128.082031 -29.523438 134.4375 -37.703125 C 161.6875 -72.828125 187.117188 -109.234375 210.734375 -146.921875 C 234.359375 -184.617188 257.675781 -222.394531 280.6875 -260.25 Z M 280.6875 -260.25 "/></g></g></g><g fill="#03295d" fill-opacity="1"><g transform="translate(645.417367, 534.146779)"><g><path d="M 374.25 -223.453125 C 377.882812 -221.941406 380.835938 -218.988281 383.109375 -214.59375 C 385.378906 -210.207031 385.984375 -206.5 384.921875 -203.46875 C 383.859375 -200.445312 380.300781 -200.144531 374.25 -202.5625 C 357.289062 -209.53125 339.425781 -214 320.65625 -215.96875 C 301.882812 -217.9375 283.035156 -218.691406 264.109375 -218.234375 C 245.179688 -217.785156 226.632812 -217.410156 208.46875 -217.109375 C 203.320312 -217.109375 198.097656 -217.03125 192.796875 -216.875 C 187.503906 -216.71875 182.285156 -216.488281 177.140625 -216.1875 C 179.554688 -214.070312 181.445312 -211.578125 182.8125 -208.703125 C 184.175781 -205.828125 184.25 -203.328125 183.03125 -201.203125 C 161.84375 -159.722656 144.128906 -116.578125 129.890625 -71.765625 C 115.660156 -26.953125 105.519531 18.617188 99.46875 64.953125 C 98.863281 68.585938 97.273438 70.554688 94.703125 70.859375 C 92.128906 71.160156 89.25 70.328125 86.0625 68.359375 C 82.882812 66.390625 80.160156 63.960938 77.890625 61.078125 C 75.617188 58.203125 74.632812 55.40625 74.9375 52.6875 C 81.300781 6.050781 91.445312 -39.820312 105.375 -84.9375 C 119.300781 -130.050781 137.015625 -173.648438 158.515625 -215.734375 C 116.117188 -214.523438 73.726562 -212.253906 31.34375 -208.921875 C 28.613281 -208.617188 25.8125 -209.601562 22.9375 -211.875 C 20.0625 -214.144531 17.640625 -216.867188 15.671875 -220.046875 C 13.703125 -223.234375 12.867188 -226.113281 13.171875 -228.6875 C 13.472656 -231.257812 15.441406 -232.695312 19.078125 -233 C 50.265625 -235.414062 81.523438 -237.304688 112.859375 -238.671875 C 144.203125 -240.035156 175.617188 -240.867188 207.109375 -241.171875 C 225.578125 -241.472656 244.347656 -241.625 263.421875 -241.625 C 282.503906 -241.625 301.28125 -240.410156 319.75 -237.984375 C 338.21875 -235.566406 356.382812 -230.722656 374.25 -223.453125 Z M 374.25 -223.453125 "/></g></g></g><g fill="#03295d" fill-opacity="1"><g transform="translate(843.898759, 534.146779)"><g><path d="M 118.09375 -56.765625 C 121.113281 -59.191406 124.441406 -59.570312 128.078125 -57.90625 C 131.710938 -56.238281 134.285156 -53.738281 135.796875 -50.40625 C 137.316406 -47.082031 136.5625 -44.507812 133.53125 -42.6875 C 115.664062 -30.882812 97.269531 -18.925781 78.34375 -6.8125 C 59.414062 5.300781 39.8125 14.988281 19.53125 22.25 C 11.957031 24.976562 4.539062 26.113281 -2.71875 25.65625 C -9.988281 25.207031 -16.347656 21.5 -21.796875 14.53125 C -27.242188 7.269531 -29.132812 -0.820312 -27.46875 -9.75 C -25.8125 -18.6875 -22.40625 -27.242188 -17.25 -35.421875 C -12.101562 -43.597656 -6.957031 -50.410156 -1.8125 -55.859375 C 2.726562 -61.015625 8.175781 -65.707031 14.53125 -69.9375 C 20.894531 -74.175781 27.484375 -76.597656 34.296875 -77.203125 C 41.109375 -77.816406 47.390625 -74.941406 53.140625 -68.578125 C 58.285156 -63.429688 60.40625 -58.285156 59.5 -53.140625 C 58.59375 -47.992188 55.789062 -43.222656 51.09375 -38.828125 C 46.40625 -34.441406 40.878906 -30.429688 34.515625 -26.796875 C 28.160156 -23.160156 22.03125 -19.976562 16.125 -17.25 C 10.21875 -14.53125 5.597656 -12.265625 2.265625 -10.453125 C 0.753906 -7.117188 -0.453125 -3.785156 -1.359375 -0.453125 C 5.296875 -1.359375 13.921875 -3.78125 24.515625 -7.71875 C 35.117188 -11.65625 46.398438 -16.5 58.359375 -22.25 C 70.316406 -28.007812 81.59375 -33.914062 92.1875 -39.96875 C 102.789062 -46.019531 111.425781 -51.617188 118.09375 -56.765625 Z M 118.09375 -56.765625 "/></g></g></g><g fill="#03295d" fill-opacity="1"><g transform="translate(964.259315, 534.146779)"><g><path d="M 138.53125 -57.6875 C 141.851562 -59.195312 144.953125 -58.890625 147.828125 -56.765625 C 150.710938 -54.648438 152.378906 -52.078125 152.828125 -49.046875 C 153.285156 -46.023438 151.546875 -43.601562 147.609375 -41.78125 C 134.285156 -35.726562 120.8125 -29.75 107.1875 -23.84375 C 93.5625 -17.9375 79.9375 -11.957031 66.3125 -5.90625 C 59.34375 -2.875 51.921875 0.378906 44.046875 3.859375 C 36.179688 7.335938 28.160156 9.457031 19.984375 10.21875 C 11.804688 10.976562 4.085938 9.085938 -3.171875 4.546875 C -11.347656 -0.597656 -16.492188 -7.410156 -18.609375 -15.890625 C -20.734375 -24.367188 -20.429688 -33.070312 -17.703125 -42 C -14.984375 -50.9375 -10.59375 -58.8125 -4.53125 -65.625 C 1.519531 -72.4375 8.628906 -76.976562 16.796875 -79.25 C 24.972656 -81.519531 33.453125 -80.082031 42.234375 -74.9375 C 44.660156 -73.425781 47.382812 -71.15625 50.40625 -68.125 C 53.4375 -65.101562 54.800781 -61.773438 54.5 -58.140625 C 54.195312 -55.109375 52.757812 -53.289062 50.1875 -52.6875 C 47.613281 -52.082031 45.113281 -52.535156 42.6875 -54.046875 C 36.9375 -57.378906 31.640625 -57.53125 26.796875 -54.5 C 21.953125 -51.46875 17.863281 -47.148438 14.53125 -41.546875 C 11.195312 -35.953125 8.773438 -31.035156 7.265625 -26.796875 C 5.148438 -21.046875 4.695312 -17.488281 5.90625 -16.125 C 7.113281 -14.757812 8.019531 -14.078125 8.625 -14.078125 C 14.082031 -14.679688 22.332031 -16.570312 33.375 -19.75 C 44.425781 -22.9375 56.535156 -26.800781 69.703125 -31.34375 C 82.878906 -35.882812 95.675781 -40.5 108.09375 -45.1875 C 120.507812 -49.882812 130.65625 -54.050781 138.53125 -57.6875 Z M 138.53125 -57.6875 "/></g></g></g><g fill="#03295d" fill-opacity="1"><g transform="translate(1105.966882, 534.146779)"><g><path d="M 211.65625 -59.046875 C 214.675781 -60.554688 217.703125 -60.25 220.734375 -58.125 C 223.765625 -56.007812 225.734375 -53.285156 226.640625 -49.953125 C 227.546875 -46.628906 226.03125 -43.90625 222.09375 -41.78125 C 208.46875 -33.90625 194.539062 -25.578125 180.3125 -16.796875 C 166.082031 -8.023438 151.394531 -1.0625 136.25 4.09375 C 127.769531 6.8125 119.441406 6.28125 111.265625 2.5 C 103.097656 -1.28125 98.5625 -8.171875 97.65625 -18.171875 C 97.351562 -22.710938 97.804688 -27.328125 99.015625 -32.015625 C 100.222656 -36.710938 101.582031 -41.179688 103.09375 -45.421875 C 104.3125 -48.441406 105.523438 -51.46875 106.734375 -54.5 C 107.941406 -57.53125 109 -60.5625 109.90625 -63.59375 C 72.96875 -43 40.269531 -16.957031 11.8125 14.53125 C 10.289062 16.351562 8.09375 16.734375 5.21875 15.671875 C 2.34375 14.609375 0.148438 13.472656 -1.359375 12.265625 C -11.347656 4.691406 -16.34375 -3.859375 -16.34375 -13.390625 C -16.34375 -22.929688 -14.53125 -33.15625 -10.90625 -44.0625 C -1.519531 -70.09375 8.773438 -95.828125 19.984375 -121.265625 C 31.492188 -147.003906 44.132812 -172.210938 57.90625 -196.890625 C 71.6875 -221.566406 86.296875 -245.5625 101.734375 -268.875 C 103.253906 -271.300781 105.523438 -272.054688 108.546875 -271.140625 C 111.578125 -270.234375 114.453125 -268.414062 117.171875 -265.6875 C 119.898438 -262.96875 121.945312 -259.941406 123.3125 -256.609375 C 124.675781 -253.285156 124.597656 -250.410156 123.078125 -247.984375 C 96.429688 -208.015625 72.96875 -166.6875 52.6875 -124 C 42.695312 -102.800781 33.3125 -81.148438 24.53125 -59.046875 C 20.894531 -49.660156 17.257812 -39.816406 13.625 -29.515625 C 25.132812 -40.117188 37.09375 -49.960938 49.5 -59.046875 C 61.914062 -68.128906 74.785156 -76.609375 88.109375 -84.484375 C 94.773438 -88.421875 101.207031 -91.144531 107.40625 -92.65625 C 113.613281 -94.164062 119.898438 -92.046875 126.265625 -86.296875 C 131.410156 -81.453125 134.359375 -75.925781 135.109375 -69.71875 C 135.867188 -63.507812 135.492188 -57.226562 133.984375 -50.875 C 133.078125 -45.71875 131.640625 -40.71875 129.671875 -35.875 C 127.703125 -31.03125 125.960938 -26.1875 124.453125 -21.34375 C 138.984375 -25.882812 153.894531 -31.410156 169.1875 -37.921875 C 184.476562 -44.429688 198.632812 -51.472656 211.65625 -59.046875 Z M 211.65625 -59.046875 "/></g></g></g></svg>